<svg xmlns="http://www.w3.org/2000/svg" viewBox="0 0 138.91 113.31" xmlns:v="https://vecta.io/nano"><path d="M0 12.94l60.06 81.12 13.92.61 28.93 18.64 12.93-21-28.52-18.38-5-9.1L0 12.98z" fill="#020000"/><g fill-rule="evenodd"><path d="M61.67 91.36l-50.6-68.34L80.5 66.76l5 9.08 26.99 17.33-10.07 16.36-27.4-17.59-13.35-.58z" fill="#a5ddeb"/><path d="M16.02 27.41l46.63 61.92s.93-.45 4.23.63l-47-59.81a21.34 21.34 0 0 1-3.86-2.74zm69.49 59.81a4.22 4.22 0 0 0 1.31 5.77l8.52 5.45a4.08 4.08 0 0 0 5.67-1.33h0a4.22 4.22 0 0 0-1.31-5.77l-8.51-5.45a4.08 4.08 0 0 0-5.68 1.33z" fill="#020000"/></g><path d="M138.92 12.94L56.61 64.79l-5 9.1-28.53 18.38 12.93 21 28.94-18.64 13.91-.61 60.06-81.12z" fill="#020000"/><g fill-rule="evenodd"><path d="M77.46 91.37l50.59-68.34-69.42 43.73-5 9.09L26.7 93.19l10.06 16.36 27.34-17.6 13.36-.58z" fill="#a5ddeb"/><path d="M123.11 27.41L76.48 89.34s-.93-.45-4.22.63l47-59.82a20.85 20.85 0 0 0 3.85-2.74zM53.63 87.23A4.23 4.23 0 0 1 52.32 93l-8.31 5.56a4.08 4.08 0 0 1-5.68-1.33h0a4.23 4.23 0 0 1 1.31-5.77l8.31-5.53a4.08 4.08 0 0 1 5.68 1.33z" fill="#020000"/></g><path d="M101.47 6.38l-2.99 7.71-18.43-6.35 1.94-.67L79.63 0 69.18 3.8 58.68 0l-2.35 7.07 1.87.65-18.44 6.06-2.86-7.4-7.06 2.87 18.62 48.81 14.58 11.98-6.13 5.04 4.61 6.32 7.66-6.31 7.67 6.31 4.6-6.32-6.12-5.04L89.9 58.06l18.63-48.81-7.06-2.87z" fill="#020000"/><path d="M102.66 9.16l-2.82 7.29-25.81-8.89 5.29-1.82-1-3-9.13 3.15-9.14-3.15-1 3 5.28 1.82-25.81 8.9-2.82-7.29-3.14 1.29 17.78 46.39 16 13.2-6.58 5.41 2.09 2.87 7.28-6 7.28 6 2.09-2.87-6.58-5.41 16.16-13.29 17.67-46.3zM96.93 24h-7.75v-6.44h4.14l5.39 1.85zm-9.79 25.32H76.5v-6.46h10.75v6.21zM76.5 32.44v-6.46h10.75v6.46zm10.74 2v6.46H76.5v-6.46zM76.5 24.02v-6.46h10.75v6.46zm0-8.45v-3.81l10.74 3.7v.1zm12.68 27.31h.46l-.46 1.17zm0-2v-6.46h3.72l-2.5 6.46zm0-8.44v-6.46h7l-2.5 6.46zm-20-23.22l5.37 1.85v4.49H63.82v-4.48zm-7.32 52.51l-2.4-2h2.4zM42.25 25.98h7v6.46h-4.48zm7 8.44v6.46h-1.22l-2.5-6.46zm0 8.44v1.18l-.45-1.18zm1.95 6.22v-6.22h10.73v6.46H51.25zm0-16.64v-6.46h10.73v6.46zm10.73 2v6.46H51.14v-6.46zM51.2 24.02v-6.46h10.73v6.46zm0-8.45v-.11l10.73-3.7v3.8zM63.88 40.9v-6.46h10.74v6.46zm10.74 2v6.46h-10.8v-6.5zM63.88 32.48v-6.46h10.74v6.46zm0-8.44v-6.48h10.74v6.46zm0 27.31h10.74v6.46h-10.8zM45.06 17.56h4.13v6.46h-7.74l-1.78-4.61zM52 51.33h9.87v6.46h-4.81L53.3 54.7zm17.19 16.43l-5.37-4.41v-3.58h10.74v3.58zm7.31-8h2.41l-2.41 2zm4.82-2H76.5V51.3h9.87l-1.3 3.37z" fill="#fff37e"/></svg>