<svg xmlns="http://www.w3.org/2000/svg" viewBox="0 0 138.91 113.31"><defs><style>.a,.c{fill:#020000;}.b{fill:#a5ddeb;}.b,.c{fill-rule:evenodd;}.d{fill:#fff37e;}</style></defs><path class="a" d="M234.56,353.36l60.05,81.12,13.92.6,28.93,18.64,12.93-21-28.52-18.37-5-9.11-82.31-51.84Z" transform="translate(-234.56 -340.41)"/><polygon class="b" points="61.67 91.36 11.07 23.02 80.5 66.76 85.5 75.84 112.49 93.17 102.42 109.53 75.02 91.94 61.67 91.36"/><path class="c" d="M250.57,367.82l46.63,61.92s.93-.44,4.23.63l-47-59.81A21.34,21.34,0,0,1,250.57,367.82Z" transform="translate(-234.56 -340.41)"/><path class="c" d="M320.06,427.64a4.23,4.23,0,0,0,1.31,5.77l8.52,5.44a4.07,4.07,0,0,0,5.67-1.33h0a4.21,4.21,0,0,0-1.31-5.77l-8.51-5.45a4.09,4.09,0,0,0-5.68,1.34Z" transform="translate(-234.56 -340.41)"/><path class="a" d="M373.47,353.36,291.16,405.2l-5,9.1-28.53,18.38,12.93,21,28.94-18.64,13.91-.6,60.06-81.12Z" transform="translate(-234.56 -340.41)"/><polygon class="b" points="77.46 91.37 128.05 23.03 58.63 66.76 53.63 75.85 26.7 93.19 36.76 109.55 64.1 91.95 77.46 91.37"/><path class="c" d="M357.66,367.83,311,429.75s-.94-.45-4.23.63l47-59.81A20.85,20.85,0,0,0,357.66,367.83Z" transform="translate(-234.56 -340.41)"/><path class="c" d="M288.18,427.64a4.24,4.24,0,0,1-1.31,5.78L278.56,439a4.09,4.09,0,0,1-5.68-1.33h0a4.23,4.23,0,0,1,1.31-5.77l8.31-5.54a4.09,4.09,0,0,1,5.68,1.33Z" transform="translate(-234.56 -340.41)"/><polygon class="a" points="101.47 6.38 98.48 14.09 80.05 7.74 81.99 7.07 79.63 0 69.18 3.8 58.68 0 56.33 7.07 58.2 7.72 39.76 13.78 36.9 6.38 29.84 9.25 48.46 58.06 63.04 70.04 56.91 75.08 61.52 81.4 69.18 75.09 76.85 81.4 81.45 75.08 75.33 70.04 89.9 58.06 108.53 9.25 101.47 6.38"/><path class="d" d="M337.21,349.58l-2.81,7.28L308.58,348l5.29-1.82-1-3-9.13,3.15-9.14-3.15-1,3,5.28,1.82-25.81,8.9-2.82-7.28-3.14,1.28,17.78,46.4L301,410.45l-6.58,5.42,2.09,2.86,7.28-6,7.28,6,2.09-2.86-6.58-5.42,16.16-13.29,17.67-46.3Zm-5.73,14.83h-7.74V358h4.13l5.39,1.86Zm-9.79,25.33H311.05v-6.46h10.74v6.2Zm-10.64-16.89v-6.46h10.74v6.46Zm10.74,2v6.46H311.05v-6.46Zm-10.74-10.43V358h10.74v6.46Zm0-8.44v-3.82l10.74,3.71V356Zm12.69,27.31h.45l-.45,1.17Zm0-2v-6.46h3.71L325,381.3Zm0-8.45v-6.46h7l-2.5,6.46Zm-20-23.22,5.37,1.85V356H298.37v-4.49Zm-7.32,52.51-2.4-2h2.4Zm-19.66-35.75h7v6.46h-4.48Zm7,8.45v6.46h-1.22L280,374.84Zm0,8.44v1.17l-.45-1.17Zm1.95,6.21v-6.21h10.73v6.46H285.78Zm0-16.64v-6.46h10.73v6.46Zm10.73,2v6.46H285.69v-6.46Zm-10.73-10.43V358h10.73v6.46Zm0-8.44v-.11l10.73-3.71V356Zm12.68,25.33v-6.46h10.74v6.46Zm10.74,2v6.46H298.37v-6.46Zm-10.74-10.43v-6.46h10.74v6.46Zm0-8.44V358h10.74v6.46Zm0,27.31h10.74v6.46H298.37ZM279.61,358h4.13v6.46H276l-1.78-4.6Zm6.94,33.77h9.87v6.46h-4.81l-3.76-3.09Zm17.19,16.44-5.37-4.42v-3.58h10.74v3.58Zm7.31-8h2.41l-2.41,2Zm4.82-2h-4.82v-6.46h9.87l-1.3,3.37Z" transform="translate(-234.56 -340.41)"/></svg>